<?xml version="1.0" encoding="utf-8"?>
<!-- Generator: Adobe Illustrator 28.1.0, SVG Export Plug-In . SVG Version: 6.00 Build 0)  -->
<svg version="1.1" id="Layer_1" xmlns="http://www.w3.org/2000/svg" xmlns:xlink="http://www.w3.org/1999/xlink" x="0px" y="0px"
	 viewBox="0 0 206.7 210" style="enable-background:new 0 0 206.7 210;" xml:space="preserve">
<style type="text/css">
	.st0{clip-path:url(#SVGID_00000107546485763359341950000006387184103330615684_);}
	.st1{clip-path:url(#SVGID_00000124864312532937337180000008749024306264963215_);}
	.st2{fill:#FFFFFF;}
	.st3{fill:#58595B;}
	.st4{fill:#FFCB4E;}
	.st5{fill:#B4121B;}
</style>
<g id="New_Logo">
	<g>
		<g>
			<g>
				<defs>
					<rect id="SVGID_1_" x="4.3" y="6" width="200" height="200"/>
				</defs>
				<clipPath id="SVGID_00000052819236966839262070000003594977016494089631_">
					<use xlink:href="#SVGID_1_"  style="overflow:visible;"/>
				</clipPath>
				<g style="clip-path:url(#SVGID_00000052819236966839262070000003594977016494089631_);">
					<g>
						<g>
							<defs>
								<ellipse id="SVGID_00000027575733578885108900000016188677738584845977_" cx="104.3" cy="105.9" rx="100" ry="99.9"/>
							</defs>
							<clipPath id="SVGID_00000072971290899912264250000012921118498664566183_">
								<use xlink:href="#SVGID_00000027575733578885108900000016188677738584845977_"  style="overflow:visible;"/>
							</clipPath>
							<g style="clip-path:url(#SVGID_00000072971290899912264250000012921118498664566183_);">
								<path id="Circle_00000040537410276721923210000015595538470111344829_" class="st2" d="M4.3,6h200v199.6H4.3L4.3,6L4.3,6z"
									/>
							</g>
							
								<use xlink:href="#SVGID_00000027575733578885108900000016188677738584845977_"  style="overflow:visible;fill:none;stroke:#000000;stroke-miterlimit:10;"/>
						</g>
					</g>
				</g>
			</g>
		</g>
		<g>
			<g>
				<path class="st3" d="M37.9,92.2l-9.5,0l0,0l9.1,2.8l-0.4,2.4l-9.5,0.1v0l9.1,2.7l-0.4,2.4l-12.2-4.1l0.4-2.8l9.3-0.1l0,0
					l-8.9-2.7l0.4-2.8l12.9-0.4L37.9,92.2z"/>
				<path class="st3" d="M36.6,105.7l-4.1,0.1v0c0.8,0.5,1.2,1.2,1.3,2.3c0,0.8-0.2,1.4-0.6,1.8s-1.1,0.6-2.1,0.7l-7.1,0.1l0-2.4
					l6.6-0.1c0.5,0,0.8-0.1,1-0.3c0.2-0.2,0.3-0.4,0.3-0.8c0-0.9-0.6-1.3-1.6-1.3l-6.3,0.1l0-2.4l12.7-0.2L36.6,105.7z"/>
				<path class="st3" d="M28,114.9c-0.3,0-0.6,0.1-0.8,0.2c-0.3,0.1-0.5,0.2-0.7,0.3s-0.3,0.3-0.4,0.4c-0.1,0.2-0.1,0.4-0.1,0.6
					c0.1,0.4,0.2,0.7,0.6,0.8s0.8,0.2,1.4,0.2l0.3,2.2c-1.1,0.1-2-0.1-2.6-0.6s-1.1-1.3-1.2-2.4c-0.1-0.9-0.1-1.6,0.2-2.1
					c0.2-0.5,0.6-0.9,1-1.2s1-0.5,1.6-0.6c0.6-0.1,1.2-0.2,1.8-0.3c0.6-0.1,1.2-0.1,1.8-0.1c0.6,0,1.2,0.1,1.6,0.3
					c0.5,0.2,0.9,0.5,1.2,1c0.3,0.5,0.6,1.1,0.7,1.9c0.1,0.7,0.1,1.3-0.1,1.8c-0.2,0.5-0.4,0.9-0.8,1.2s-0.9,0.6-1.4,0.7
					c-0.6,0.2-1.2,0.3-2,0.4l-0.6,0.1l-0.6-4.8L28,114.9z M31.5,116.9c0.3-0.1,0.5-0.2,0.7-0.3s0.3-0.2,0.4-0.4
					c0.1-0.2,0.1-0.4,0.1-0.6s-0.1-0.4-0.2-0.6s-0.3-0.2-0.5-0.3c-0.2-0.1-0.4-0.1-0.6-0.1c-0.2,0-0.5,0-0.7,0l-0.4,0.1l0.3,2.5
					C30.9,117,31.2,116.9,31.5,116.9z"/>
				<path class="st3" d="M35.3,122.4l-1.2,0.3l0,0c0.5,0.1,0.9,0.4,1.3,0.6s0.6,0.7,0.7,1.2c0,0.1,0,0.1,0,0.2s0,0.1,0,0.2l-2.3,0.5
					c0-0.1,0-0.2-0.1-0.4c0-0.1-0.1-0.2-0.1-0.4c-0.1-0.2-0.1-0.4-0.2-0.6c-0.1-0.2-0.2-0.4-0.4-0.5s-0.4-0.2-0.6-0.3
					c-0.2-0.1-0.5,0-0.8,0l-5.6,1.3l-0.6-2.4l9.3-2.2L35.3,122.4z"/>
				<path class="st3" d="M31.2,129.7c-0.3,0.1-0.5,0.2-0.8,0.3c-0.2,0.1-0.4,0.3-0.6,0.4c-0.2,0.2-0.3,0.3-0.3,0.5
					c-0.1,0.2-0.1,0.4,0,0.6c0.1,0.4,0.4,0.6,0.7,0.7s0.8,0.1,1.4-0.1l0.7,2.1c-1.1,0.3-2,0.3-2.7,0c-0.7-0.3-1.3-1-1.7-2.1
					c-0.3-0.8-0.4-1.5-0.2-2.1c0.1-0.6,0.4-1,0.8-1.4c0.4-0.4,0.8-0.7,1.4-0.9c0.6-0.2,1.1-0.5,1.7-0.7c0.6-0.2,1.2-0.4,1.8-0.5
					c0.6-0.1,1.2-0.1,1.7,0s1,0.3,1.4,0.7c0.4,0.4,0.8,1,1,1.7c0.2,0.7,0.3,1.3,0.2,1.8s-0.3,0.9-0.6,1.3c-0.3,0.4-0.7,0.7-1.3,1
					s-1.2,0.5-1.8,0.8l-0.5,0.2l-1.6-4.6L31.2,129.7z M35,131c0.2-0.1,0.5-0.3,0.6-0.4c0.2-0.1,0.3-0.3,0.3-0.5s0-0.4-0.1-0.6
					c-0.1-0.2-0.2-0.4-0.4-0.5c-0.2-0.1-0.3-0.2-0.5-0.2c-0.2,0-0.4,0-0.7,0s-0.4,0.1-0.7,0.2l-0.3,0.1l0.8,2.4
					C34.5,131.2,34.8,131.1,35,131z"/>
				<path class="st3" d="M43.5,136l1.2,2.2l-9.3,5.1l2.2,3.9l-1.8,1l-3.4-6.2L43.5,136z"/>
				<path class="st3" d="M41.2,149.6c-0.2,0.2-0.4,0.3-0.6,0.5c-0.2,0.2-0.3,0.4-0.5,0.6c-0.1,0.2-0.2,0.4-0.2,0.6
					c0,0.2,0.1,0.4,0.2,0.6c0.2,0.3,0.5,0.5,0.9,0.5s0.8-0.2,1.3-0.5l1.3,1.8c-0.9,0.6-1.8,0.9-2.6,0.8s-1.5-0.6-2.2-1.6
					c-0.5-0.7-0.8-1.4-0.8-1.9c-0.1-0.6,0.1-1.1,0.3-1.6c0.3-0.5,0.6-0.9,1.1-1.3c0.5-0.4,0.9-0.8,1.4-1.1c0.5-0.4,1.1-0.7,1.6-1
					c0.5-0.3,1.1-0.4,1.6-0.5c0.5-0.1,1.1,0,1.6,0.3c0.5,0.2,1,0.7,1.5,1.4c0.4,0.6,0.7,1.1,0.7,1.6c0.1,0.5,0,1-0.2,1.4
					s-0.5,0.9-0.9,1.3c-0.4,0.4-0.9,0.9-1.5,1.3l-0.4,0.3l-2.8-3.9L41.2,149.6z M45.2,149.8c0.2-0.2,0.4-0.4,0.5-0.6
					c0.1-0.2,0.2-0.4,0.1-0.6c0-0.2-0.1-0.4-0.2-0.6c-0.1-0.2-0.3-0.3-0.5-0.4c-0.2-0.1-0.4-0.1-0.6-0.1c-0.2,0-0.4,0.1-0.6,0.2
					s-0.4,0.2-0.6,0.3l-0.3,0.2l1.5,2C44.7,150.1,45,149.9,45.2,149.8z"/>
				<path class="st3" d="M47.6,152.9c0.4-0.4,0.8-0.6,1.2-0.7c0.4-0.1,0.8-0.1,1.2-0.1c0.4,0.1,0.7,0.2,1.1,0.5
					c0.4,0.2,0.7,0.5,1,0.9c0.5,0.5,0.8,1,1,1.5c0.2,0.4,0.3,0.8,0.3,1.2s-0.1,0.7-0.4,1s-0.5,0.6-0.8,0.9l-3.7,3.4
					c-0.3,0.3-0.6,0.5-0.7,0.8c-0.2,0.2-0.3,0.4-0.4,0.7l-1.6-1.7c0.1-0.2,0.1-0.3,0.2-0.5s0.2-0.3,0.3-0.4l0,0
					c-0.6,0.1-1,0.1-1.4-0.1c-0.4-0.2-0.7-0.5-1.1-0.9c-0.3-0.3-0.5-0.6-0.6-1s-0.1-0.6,0-0.9c0.1-0.3,0.2-0.6,0.4-0.9
					c0.2-0.3,0.4-0.5,0.6-0.7c0.3-0.3,0.6-0.5,1-0.7c0.3-0.1,0.6-0.2,0.9-0.2c0.3,0,0.6,0,0.9,0.2c0.3,0.1,0.7,0.3,1,0.5l1.2,0.8
					c0.3,0.2,0.6,0.3,0.8,0.3s0.4-0.1,0.7-0.3c0.3-0.2,0.4-0.5,0.5-0.8c0-0.3-0.1-0.5-0.4-0.9c-0.3-0.3-0.5-0.4-0.8-0.4
					c-0.3,0-0.6,0.1-0.9,0.4l-0.2,0.2l-1.5-1.6L47.6,152.9z M48.5,157.4c-0.2-0.1-0.3-0.2-0.5-0.3c-0.4-0.3-0.8-0.4-1.1-0.4
					c-0.3,0-0.6,0.2-1,0.4c-0.3,0.2-0.5,0.5-0.6,0.8c-0.1,0.3,0,0.5,0.2,0.8c0.1,0.1,0.2,0.2,0.4,0.3c0.2,0.1,0.3,0.2,0.5,0.2
					s0.4,0,0.6,0c0.2-0.1,0.4-0.2,0.6-0.4l1.4-1.3C48.8,157.5,48.6,157.5,48.5,157.4z"/>
				<path class="st3" d="M57.2,158.8l-0.9,1l0,0c0.5-0.2,1-0.2,1.4-0.2s0.9,0.2,1.2,0.5c0.1,0,0.1,0.1,0.2,0.1s0.1,0.1,0.1,0.2
					l-1.6,1.7c-0.1-0.1-0.2-0.2-0.3-0.3c-0.1-0.1-0.2-0.2-0.3-0.3c-0.2-0.1-0.3-0.3-0.5-0.4c-0.2-0.1-0.4-0.1-0.6-0.2
					c-0.2,0-0.4,0-0.7,0.1c-0.2,0.1-0.4,0.3-0.7,0.5l-3.8,4.3l-1.8-1.6l6.4-7.1L57.2,158.8z"/>
				<path class="st3" d="M61.8,162.5l-0.7,0.9l0,0c0.5-0.2,1-0.3,1.4-0.2c0.5,0.1,0.9,0.2,1.4,0.6c0.6,0.5,1,1,1.1,1.6
					s-0.1,1.3-0.7,2l-4.2,5.7l-2-1.4l3.9-5.3c0.3-0.4,0.4-0.7,0.4-1c0-0.3-0.2-0.5-0.5-0.7c-0.7-0.5-1.4-0.3-2,0.5l-3.7,5.1l-2-1.4
					l5.6-7.7L61.8,162.5z"/>
				<path class="st3" d="M69.4,167.5l-4.9,8.2l-2.1-1.2l4.9-8.2L69.4,167.5z M71,164.6l-1.1,1.8l-2.1-1.2l1.1-1.8L71,164.6z"/>
				<path class="st3" d="M72.9,169.3l-0.5,1l0,0c0.4-0.3,0.9-0.5,1.4-0.5c0.5,0,0.9,0.1,1.4,0.3c0.7,0.3,1.2,0.8,1.4,1.3
					s0.1,1.3-0.3,2.1l-3,6.4l-2.2-1l2.8-5.9c0.2-0.5,0.3-0.8,0.2-1s-0.3-0.5-0.6-0.6c-0.8-0.4-1.4-0.1-1.9,0.9l-2.7,5.7l-2.2-1
					l4.1-8.6L72.9,169.3z"/>
				<path class="st3" d="M82.9,182.8c-0.4,1.2-1,2-1.7,2.3c-0.8,0.4-1.8,0.4-3.2-0.1c-1-0.3-1.7-0.8-2.1-1.4s-0.5-1.3-0.2-2l2.2,0.7
					c-0.1,0.3-0.1,0.6,0.1,0.8c0.1,0.1,0.2,0.2,0.3,0.3s0.2,0.1,0.4,0.2c0.5,0.1,0.9,0.1,1.1-0.1s0.5-0.6,0.7-1l0.4-1.2l0,0
					c-0.4,0.3-0.7,0.4-1.1,0.5s-0.8,0.1-1.2,0c-0.9-0.3-1.5-0.9-1.8-1.7c-0.2-0.9-0.1-2.1,0.4-3.8c0.2-0.5,0.4-1.1,0.6-1.6
					c0.2-0.5,0.5-1,0.9-1.4c0.3-0.4,0.8-0.6,1.2-0.8s1-0.1,1.6,0.1c0.3,0.1,0.6,0.3,0.9,0.6c0.3,0.3,0.5,0.7,0.5,1.3l0,0l0.3-1
					l2.2,0.7L82.9,182.8z M79.2,178.4c-0.1,0.3-0.1,0.6-0.1,0.8c0,0.2,0.1,0.5,0.2,0.6c0.1,0.2,0.3,0.3,0.5,0.4
					c0.2,0.1,0.5,0.1,0.7,0c0.2-0.1,0.4-0.2,0.6-0.4s0.3-0.4,0.5-0.8s0.3-0.6,0.4-1c0.4-1.1,0.5-1.9,0.5-2.4c0-0.5-0.3-0.9-0.7-1
					c-0.3-0.1-0.5-0.1-0.7,0c-0.2,0.1-0.4,0.2-0.6,0.4c-0.2,0.2-0.3,0.5-0.5,1s-0.4,0.9-0.6,1.5C79.3,177.8,79.2,178.1,79.2,178.4z"
					/>
				<path class="st3" d="M92.2,172.4l2.5,0.4l-2,12.5l-2.5-0.4L92.2,172.4z"/>
				<path class="st3" d="M98.4,176.3l-0.1,1.1h0c0.3-0.5,0.6-0.8,1.1-1c0.4-0.2,0.9-0.3,1.4-0.2c0.8,0,1.4,0.3,1.8,0.8
					s0.6,1.1,0.5,2.1l-0.4,7l-2.4-0.1l0.4-6.5c0-0.5,0-0.8-0.2-1s-0.4-0.3-0.8-0.3c-0.9,0-1.3,0.4-1.4,1.5l-0.4,6.3l-2.4-0.1
					l0.6-9.5L98.4,176.3z"/>
				<path class="st3" d="M107.1,183.2c0,0.4,0.1,0.7,0.4,1c0.2,0.2,0.6,0.4,1,0.3c0.4,0,0.7-0.1,0.9-0.3c0.2-0.2,0.3-0.5,0.3-0.9
					c0-0.3-0.1-0.5-0.3-0.7c-0.2-0.1-0.4-0.3-0.6-0.4l-1.8-0.5c-0.7-0.2-1.2-0.5-1.6-0.9c-0.4-0.4-0.6-1-0.6-1.6
					c0-0.4,0-0.8,0.1-1.1c0.1-0.4,0.3-0.7,0.6-0.9s0.6-0.5,1.1-0.7s1-0.3,1.6-0.3c1.1-0.1,1.9,0.1,2.5,0.6c0.6,0.4,0.9,1.1,0.9,2
					l0,0.4l-2.2,0.1c0-0.5-0.1-0.9-0.3-1.1s-0.5-0.3-0.9-0.3c-0.3,0-0.6,0.1-0.8,0.3c-0.2,0.2-0.3,0.5-0.3,0.8
					c0,0.2,0.1,0.4,0.3,0.6c0.2,0.2,0.4,0.3,0.9,0.4l1.5,0.4c0.8,0.2,1.4,0.5,1.7,0.9s0.5,1,0.6,1.7c0,0.5,0,1-0.2,1.3
					c-0.2,0.4-0.4,0.7-0.7,1c-0.3,0.3-0.7,0.5-1.1,0.6c-0.4,0.1-0.9,0.2-1.4,0.2c-0.7,0-1.3,0-1.7-0.1c-0.5-0.1-0.8-0.3-1.1-0.5
					c-0.3-0.2-0.5-0.5-0.6-0.9c-0.1-0.4-0.2-0.8-0.2-1.2l0-0.3l2.2-0.1L107.1,183.2z"/>
				<path class="st3" d="M115,175.7l0.2,1l0,0c0.2-0.5,0.4-0.9,0.7-1.1c0.3-0.2,0.7-0.4,1.2-0.5c1-0.2,1.8,0.1,2.4,0.8
					c0.6,0.7,1.1,1.9,1.4,3.7c0.3,1.7,0.3,3-0.1,3.9c-0.3,0.8-1,1.3-2,1.5c-0.5,0.1-0.9,0.1-1.2,0s-0.7-0.3-1-0.7l0,0l0.7,3.9
					l-2.4,0.4l-2.1-12.4L115,175.7z M116.6,182.7c0.2,0.5,0.6,0.7,1.2,0.6c0.5-0.1,0.8-0.4,0.9-1c0.1-0.5,0-1.3-0.2-2.4
					c-0.2-1-0.4-1.8-0.6-2.3s-0.6-0.7-1.2-0.6c-0.5,0.1-0.8,0.4-0.9,1c-0.1,0.5,0,1.3,0.2,2.4C116.1,181.4,116.4,182.2,116.6,182.7z
					"/>
				<path class="st3" d="M123.1,170.6l0.6,2l-2.4,0.6l-0.6-2L123.1,170.6z M123.9,173.8l2.5,9.2l-2.4,0.6l-2.5-9.2L123.9,173.8z"/>
				<path class="st3" d="M127.8,172.5l0.4,1.2l0,0c0.1-0.5,0.2-1,0.5-1.3s0.6-0.6,1.1-0.8c0.1,0,0.1,0,0.2-0.1s0.1,0,0.2,0l0.8,2.2
					c-0.1,0-0.2,0.1-0.4,0.1c-0.1,0-0.2,0.1-0.4,0.1c-0.2,0.1-0.4,0.2-0.6,0.3c-0.2,0.1-0.3,0.3-0.5,0.5c-0.1,0.2-0.2,0.4-0.2,0.6
					c0,0.2,0,0.5,0.1,0.8l1.9,5.4l-2.3,0.8l-3.2-9L127.8,172.5z"/>
				<path class="st3" d="M135.6,175.8c0.1,0.3,0.3,0.5,0.4,0.7c0.1,0.2,0.3,0.4,0.5,0.5c0.2,0.1,0.4,0.2,0.6,0.3
					c0.2,0,0.4,0,0.6-0.1c0.4-0.2,0.6-0.4,0.6-0.8s0-0.8-0.2-1.4l2-0.9c0.4,1,0.5,1.9,0.3,2.7c-0.2,0.8-0.9,1.4-2,1.9
					c-0.8,0.4-1.5,0.5-2.1,0.5c-0.6-0.1-1.1-0.2-1.5-0.6s-0.8-0.8-1.1-1.3s-0.6-1.1-0.8-1.6c-0.3-0.6-0.5-1.1-0.7-1.7
					s-0.2-1.1-0.2-1.6c0.1-0.5,0.2-1,0.6-1.5c0.3-0.5,0.9-0.9,1.6-1.2c0.6-0.3,1.2-0.4,1.7-0.4c0.5,0,1,0.2,1.4,0.4s0.8,0.6,1.1,1.1
					c0.3,0.5,0.7,1.1,1,1.7l0.2,0.5l-4.4,2L135.6,175.8z M136.4,171.9c-0.1-0.2-0.3-0.4-0.5-0.6c-0.2-0.1-0.3-0.2-0.5-0.2
					s-0.4,0-0.6,0.1c-0.2,0.1-0.4,0.2-0.5,0.4c-0.1,0.2-0.1,0.4-0.2,0.6c0,0.2,0,0.4,0.1,0.6s0.1,0.4,0.2,0.6l0.2,0.3l2.3-1.1
					C136.7,172.4,136.6,172.1,136.4,171.9z"/>
				<path class="st3" d="M143.6,172.6c0.2,0.4,0.5,0.6,0.8,0.7c0.3,0.1,0.7,0,1-0.2c0.3-0.2,0.5-0.4,0.6-0.7c0.1-0.3,0-0.6-0.2-0.9
					c-0.2-0.3-0.4-0.4-0.6-0.5c-0.2,0-0.5,0-0.7,0l-1.8,0.4c-0.7,0.1-1.3,0.1-1.8,0c-0.5-0.2-1-0.6-1.3-1.1c-0.2-0.3-0.3-0.7-0.4-1
					c-0.1-0.4-0.1-0.7,0.1-1.1s0.3-0.7,0.6-1.1c0.3-0.4,0.7-0.7,1.2-1c0.9-0.6,1.8-0.8,2.5-0.7s1.3,0.5,1.7,1.3l0.2,0.3l-1.9,1.1
					c-0.3-0.4-0.5-0.7-0.8-0.8s-0.6-0.1-0.9,0.1c-0.3,0.2-0.4,0.4-0.6,0.6c-0.1,0.3-0.1,0.5,0.1,0.8c0.1,0.2,0.3,0.3,0.5,0.4
					c0.2,0.1,0.6,0.1,1,0l1.5-0.4c0.8-0.2,1.4-0.2,1.9,0c0.5,0.2,0.9,0.6,1.3,1.2c0.3,0.4,0.4,0.9,0.5,1.3c0,0.4,0,0.8-0.1,1.2
					c-0.1,0.4-0.4,0.7-0.7,1s-0.7,0.6-1.1,0.9c-0.6,0.4-1.1,0.6-1.6,0.7s-0.9,0.1-1.2,0.1s-0.7-0.2-1-0.5s-0.6-0.6-0.8-1l-0.2-0.3
					l1.9-1.1L143.6,172.6z"/>
				<path class="st3" d="M151.9,157c-0.4-0.2-0.9,0-1.3,0.3c-0.2,0.2-0.4,0.5-0.4,0.7s0,0.6,0.2,0.9c0.2,0.4,0.4,0.8,0.8,1.3
					s0.9,1.1,1.5,1.7c0.6,0.7,1.2,1.3,1.6,1.7c0.4,0.4,0.8,0.7,1.1,0.8c0.3,0.1,0.6,0.2,0.8,0.1c0.2,0,0.4-0.2,0.6-0.4
					c0.2-0.1,0.3-0.3,0.4-0.5s0.1-0.4,0.1-0.7c-0.1-0.3-0.2-0.6-0.4-1c-0.2-0.4-0.6-0.8-1-1.3l1.9-1.7c0.5,0.5,0.9,1,1.2,1.5
					c0.3,0.5,0.6,1.1,0.6,1.6c0.1,0.5,0,1.1-0.2,1.6s-0.6,1.1-1.3,1.7c-0.7,0.6-1.4,1-2,1.2c-0.6,0.1-1.2,0.1-1.9-0.1
					c-0.6-0.2-1.2-0.6-1.8-1.1s-1.2-1.2-1.9-1.9c-0.6-0.7-1.2-1.4-1.7-2c-0.5-0.7-0.8-1.3-1-1.9c-0.2-0.6-0.1-1.3,0.1-1.9
					s0.7-1.2,1.4-1.9c0.7-0.6,1.3-1,1.9-1.1c0.6-0.1,1.1-0.1,1.6,0c0.5,0.2,0.9,0.4,1.4,0.8c0.4,0.4,0.8,0.7,1.1,1l-1.9,1.7
					C152.9,157.6,152.4,157.2,151.9,157z"/>
				<path class="st3" d="M157.5,156.5c-0.4-0.5-0.6-1-0.8-1.5c-0.1-0.5-0.1-1,0-1.5c0.1-0.5,0.4-1,0.9-1.5c0.5-0.6,0.9-1,1.4-1.2
					s1-0.3,1.5-0.2c0.5,0.1,1,0.2,1.6,0.6c0.6,0.3,1.1,0.8,1.8,1.3c0.6,0.5,1.1,1,1.5,1.6s0.6,1,0.8,1.5c0.1,0.5,0.1,1-0.1,1.5
					c-0.2,0.5-0.5,1-0.9,1.5c-0.5,0.6-0.9,1-1.4,1.2c-0.5,0.2-0.9,0.3-1.5,0.3c-0.5-0.1-1-0.2-1.6-0.6c-0.6-0.3-1.1-0.8-1.8-1.3
					C158.4,157.5,157.9,157,157.5,156.5z M161.7,157c0.3,0.2,0.6,0.4,0.9,0.6c0.3,0.1,0.5,0.2,0.8,0.1c0.2,0,0.5-0.1,0.6-0.4
					c0.3-0.4,0.4-0.8,0.1-1.3c-0.3-0.5-0.9-1.1-1.8-1.9c-0.9-0.8-1.6-1.3-2.1-1.5c-0.5-0.2-0.9-0.1-1.3,0.3
					c-0.2,0.2-0.3,0.5-0.3,0.7c0,0.2,0.1,0.5,0.3,0.8c0.2,0.3,0.4,0.5,0.7,0.8s0.6,0.6,1,0.9C161,156.5,161.3,156.8,161.7,157z"/>
				<path class="st3" d="M162.4,146.3l0.9,0.6l0,0c-0.2-0.5-0.4-0.9-0.3-1.4c0.1-0.5,0.2-0.9,0.5-1.4c0.4-0.6,0.9-1,1.5-1.1
					s1.3,0.1,2.1,0.6l5.9,3.9l-1.4,2l-5.5-3.6c-0.4-0.3-0.8-0.4-1-0.4c-0.3,0-0.5,0.2-0.7,0.5c-0.5,0.7-0.3,1.4,0.6,1.9l5.3,3.5
					l-1.4,2l-8-5.3L162.4,146.3z"/>
				<path class="st3" d="M167,142.2l-1.5-0.8l0.6-1.1l-1-0.5c-0.4-0.2-0.7-0.4-0.9-0.7s-0.3-0.5-0.4-0.8s0-0.6,0-0.9
					c0.1-0.3,0.2-0.6,0.4-1c0.2-0.4,0.4-0.8,0.7-1.1l1.5,0.8c0,0.1-0.1,0.1-0.1,0.2l-0.1,0.2c-0.2,0.3-0.2,0.5-0.2,0.7
					c0,0.2,0.2,0.3,0.4,0.5l0.7,0.4l0.7-1.2l1.5,0.8l-0.7,1.2l7,3.7l-1.1,2.2l-7-3.7L167,142.2z"/>
				<path class="st3" d="M166.4,132.4l1.9,0.9l-1,2.2l-1.9-0.9L166.4,132.4z M169.3,133.8l8.7,3.9l-1,2.2l-8.7-3.9L169.3,133.8z"/>
				<path class="st3" d="M179.7,130.4c0.3,0.4,0.5,0.8,0.6,1.2c0.1,0.4,0,0.8-0.1,1.3c-0.3,0.9-0.9,1.5-1.8,1.7s-2.2,0-3.9-0.6
					c-1.7-0.6-2.8-1.2-3.4-1.9s-0.7-1.5-0.4-2.5c0.1-0.4,0.4-0.8,0.6-1c0.3-0.2,0.6-0.4,1.1-0.6l0,0l-3.8-1.3l0.8-2.3l12,4.1
					l-0.8,2.2L179.7,130.4L179.7,130.4z M177.6,132.2c0.5,0,0.9-0.2,1.1-0.7c0.2-0.5,0-0.9-0.4-1.2s-1.2-0.6-2.2-1s-1.8-0.5-2.3-0.5
					s-0.9,0.2-1.1,0.7c-0.2,0.5,0,0.9,0.4,1.2c0.5,0.3,1.2,0.6,2.2,1C176.3,132,177.1,132.2,177.6,132.2z"/>
				<path class="st3" d="M179,123.1c0.3,0.1,0.5,0.1,0.8,0.1c0.3,0,0.5,0,0.7-0.1s0.4-0.1,0.6-0.3s0.2-0.3,0.3-0.5
					c0.1-0.4,0-0.7-0.2-1s-0.7-0.5-1.2-0.7l0.5-2.1c1.1,0.3,1.9,0.7,2.3,1.4c0.5,0.6,0.6,1.6,0.3,2.7c-0.2,0.9-0.5,1.5-0.9,1.9
					c-0.4,0.4-0.9,0.7-1.4,0.8s-1.1,0.2-1.7,0.1s-1.2-0.2-1.8-0.3c-0.6-0.1-1.2-0.3-1.8-0.5c-0.6-0.2-1-0.5-1.4-0.8
					c-0.4-0.4-0.7-0.8-0.9-1.3c-0.2-0.5-0.2-1.2,0-2c0.1-0.7,0.4-1.2,0.7-1.6s0.7-0.7,1.2-0.9c0.5-0.2,1-0.2,1.6-0.2s1.3,0.1,2,0.3
					l0.5,0.1l-1,4.7L179,123.1z M176.4,120c-0.3,0-0.5,0-0.7,0c-0.2,0.1-0.4,0.1-0.5,0.3s-0.2,0.3-0.3,0.6c0,0.2,0,0.4,0,0.6
					c0.1,0.2,0.2,0.3,0.4,0.5c0.2,0.1,0.4,0.2,0.6,0.3c0.2,0.1,0.4,0.1,0.6,0.2l0.4,0.1l0.5-2.4C177,120.1,176.7,120.1,176.4,120z"
					/>
				<path class="st3" d="M174.6,113.6l1.1,0.1v0c-0.5-0.3-0.8-0.7-1-1.1c-0.2-0.4-0.2-0.9-0.2-1.4c0.1-0.8,0.3-1.4,0.8-1.7
					c0.5-0.4,1.2-0.5,2.1-0.4l7.1,0.6l-0.2,2.4l-6.6-0.6c-0.5,0-0.9,0-1.1,0.2c-0.2,0.1-0.3,0.4-0.4,0.8c-0.1,0.9,0.4,1.3,1.5,1.4
					l6.3,0.5l-0.2,2.4l-9.5-0.8L174.6,113.6z"/>
				<path class="st3" d="M177.6,102.5c-0.2,0-0.4,0.1-0.6,0.2c-0.2,0.1-0.3,0.2-0.4,0.3c-0.1,0.1-0.2,0.3-0.1,0.6
					c0,0.3,0.1,0.5,0.2,0.7c0.1,0.2,0.4,0.3,0.6,0.4c0.3,0.1,0.6,0.1,1,0.2s0.9,0,1.5,0c0.6,0,1.1-0.1,1.5-0.1
					c0.4-0.1,0.8-0.1,1-0.2c0.3-0.1,0.5-0.2,0.6-0.4c0.1-0.2,0.2-0.4,0.2-0.7c0-0.4-0.2-0.7-0.6-0.9s-0.9-0.2-1.7-0.2l-0.1-2.3
					c1.3,0,2.2,0.2,2.9,0.8s1,1.5,1.1,2.8c0,0.6,0,1.1-0.2,1.6s-0.4,0.8-0.8,1.2c-0.4,0.3-0.9,0.6-1.5,0.7c-0.6,0.2-1.4,0.3-2.4,0.3
					c-1,0-1.8,0-2.5-0.2c-0.6-0.2-1.2-0.4-1.6-0.8c-0.4-0.3-0.7-0.7-0.9-1.2s-0.3-1-0.3-1.6c0-1.1,0.3-2,0.9-2.6
					c0.6-0.6,1.5-0.9,2.7-0.9l0.1,2.3C178.1,102.5,177.9,102.5,177.6,102.5z"/>
				<path class="st3" d="M180.2,96.1c0.3,0,0.5-0.1,0.8-0.2c0.3-0.1,0.5-0.2,0.7-0.3c0.2-0.1,0.3-0.3,0.4-0.4s0.1-0.4,0.1-0.6
					c-0.1-0.4-0.2-0.7-0.6-0.8c-0.3-0.1-0.8-0.2-1.4-0.2l-0.3-2.2c1.1-0.1,2,0.1,2.6,0.5s1.1,1.3,1.2,2.4c0.1,0.9,0.1,1.6-0.1,2.1
					s-0.5,0.9-1,1.3c-0.5,0.3-1,0.5-1.6,0.7s-1.2,0.2-1.8,0.3c-0.6,0.1-1.2,0.1-1.9,0.1s-1.1-0.1-1.6-0.3c-0.5-0.2-0.9-0.5-1.3-1
					s-0.6-1.1-0.7-1.9c-0.1-0.7-0.1-1.3,0.1-1.8c0.2-0.5,0.4-0.9,0.8-1.2c0.4-0.3,0.9-0.6,1.4-0.8c0.6-0.2,1.2-0.3,2-0.4l0.5-0.1
					l0.7,4.8L180.2,96.1z M176.7,94.2c-0.3,0.1-0.5,0.2-0.7,0.3s-0.3,0.3-0.4,0.4c-0.1,0.2-0.1,0.4-0.1,0.6s0.1,0.4,0.3,0.6
					c0.1,0.1,0.3,0.2,0.5,0.3c0.2,0.1,0.4,0.1,0.6,0.1s0.5,0,0.7,0l0.4-0.1l-0.4-2.5C177.3,94,177,94.1,176.7,94.2z"/>
			</g>
		</g>
		<path class="st3" d="M148.1,58.8H60.8c-12,11.4-19.5,27.5-19.5,45.3c0,34.7,28.3,62.8,63.1,62.8s63.1-28.1,63.1-62.8
			C167.6,86.3,160.1,70.3,148.1,58.8z"/>
		<g>
			<path class="st2" d="M67.1,74.6c-0.4-0.6-1-1-2-1c-0.5,0-1,0.1-1.3,0.4c-0.3,0.3-0.6,0.7-0.8,1.3c-0.2,0.6-0.3,1.4-0.4,2.3
				c-0.1,1-0.1,2.1-0.1,3.5c0,1.5,0.1,2.7,0.2,3.6s0.3,1.6,0.5,2.1c0.2,0.5,0.5,0.8,0.9,1c0.3,0.2,0.7,0.3,1.2,0.3
				c0.4,0,0.7-0.1,1-0.2c0.3-0.1,0.6-0.4,0.8-0.7c0.2-0.4,0.4-0.9,0.6-1.5c0.1-0.6,0.2-1.5,0.2-2.6H72c0,1.1-0.1,2.1-0.3,3
				c-0.2,0.9-0.5,1.8-1,2.5c-0.5,0.7-1.2,1.3-2,1.7s-2,0.6-3.4,0.6c-1.6,0-2.9-0.2-3.8-0.7c-0.9-0.5-1.7-1.2-2.2-2.1s-0.8-2-1-3.2
				c-0.1-1.2-0.2-2.6-0.2-4.1c0-1.5,0.1-2.8,0.2-4.1s0.5-2.3,1-3.2s1.2-1.6,2.2-2.1s2.2-0.8,3.8-0.8c1.5,0,2.7,0.2,3.6,0.7
				c0.9,0.5,1.5,1,2,1.7c0.4,0.7,0.7,1.5,0.8,2.3s0.2,1.6,0.2,2.3h-4.2C67.6,76.3,67.5,75.3,67.1,74.6z"/>
			<path class="st2" d="M86.5,74.4H79v4.6h7.1v3.2H79v5.2h7.8v3.2h-12V71.1h11.7L86.5,74.4L86.5,74.4z"/>
			<path class="st2" d="M99.2,84.5L99.2,84.5l0.1-13.4h3.9v19.5h-4.8L93.1,77h-0.1v13.7h-3.9V71.1h4.9L99.2,84.5z"/>
			<path class="st2" d="M118.7,74.4h-4.6v16.3h-4.2V74.4h-4.6v-3.2h13.4L118.7,74.4L118.7,74.4z"/>
			<path class="st2" d="M128.6,71.1c1.8,0,3.1,0.4,4.1,1.2c1,0.8,1.5,2.1,1.5,3.8c0,1.3-0.3,2.4-0.9,3.2c-0.6,0.8-1.4,1.4-2.6,1.6
				V81c1.1,0.1,1.8,0.5,2.3,1s0.8,1.3,0.9,2.4c0,0.4,0.1,0.8,0.1,1.2c0,0.4,0,0.9,0.1,1.4c0,1,0.1,1.8,0.2,2.4
				c0.1,0.6,0.4,0.9,0.8,1.1v0.2h-4.6c-0.2-0.3-0.4-0.6-0.4-0.9c-0.1-0.4-0.1-0.7-0.1-1.1l-0.1-3.8c0-0.8-0.2-1.4-0.6-1.8
				c-0.4-0.4-1-0.7-1.9-0.7H125v8.3h-4.2V71.1L128.6,71.1L128.6,71.1z M126.8,79.7c1,0,1.8-0.2,2.4-0.7s0.8-1.2,0.8-2.3
				c0-1.8-1-2.7-2.9-2.7h-2v5.6L126.8,79.7L126.8,79.7z"/>
			<path class="st2" d="M149.1,74.4h-7.5v4.6h7.1v3.2h-7.1v5.2h7.8v3.2h-12V71.1h11.7L149.1,74.4L149.1,74.4z"/>
			<path class="st2" d="M96.1,97v2.4h-5.5v3.4h5.2v2.4h-5.2v6.2h-3.1V97L96.1,97L96.1,97z"/>
			<path class="st2" d="M97.5,101.2c0.1-0.9,0.4-1.7,0.7-2.4c0.4-0.7,0.9-1.2,1.6-1.5s1.6-0.6,2.8-0.6s2.1,0.2,2.8,0.6
				c0.7,0.4,1.2,0.9,1.6,1.5c0.4,0.7,0.6,1.4,0.7,2.4s0.2,1.9,0.2,3c0,1.1-0.1,2.1-0.2,3s-0.4,1.7-0.7,2.4s-0.9,1.2-1.6,1.5
				c-0.7,0.4-1.6,0.5-2.8,0.5s-2.1-0.2-2.8-0.5s-1.2-0.9-1.6-1.5c-0.4-0.7-0.6-1.4-0.7-2.4c-0.1-0.9-0.2-1.9-0.2-3
				C97.4,103.1,97.4,102.1,97.5,101.2z M100.6,106.7c0.1,0.7,0.1,1.2,0.3,1.6c0.1,0.4,0.4,0.7,0.6,0.9c0.3,0.2,0.6,0.3,1.1,0.3
				c0.5,0,0.8-0.1,1.1-0.3c0.3-0.2,0.5-0.5,0.6-0.9c0.1-0.4,0.2-1,0.3-1.6s0.1-1.5,0.1-2.5s0-1.8-0.1-2.5c-0.1-0.7-0.1-1.2-0.3-1.6
				c-0.1-0.4-0.4-0.7-0.6-0.9c-0.3-0.2-0.6-0.3-1.1-0.3c-0.5,0-0.8,0.1-1.1,0.3c-0.3,0.2-0.5,0.5-0.6,0.9s-0.2,1-0.3,1.6
				s-0.1,1.5-0.1,2.5S100.5,106,100.6,106.7z"/>
			<path class="st2" d="M115.7,97c1.3,0,2.3,0.3,3,0.9s1.1,1.5,1.1,2.8c0,1-0.2,1.8-0.6,2.4s-1.1,1-1.9,1.2v0
				c0.8,0.1,1.4,0.3,1.7,0.7c0.4,0.4,0.6,0.9,0.7,1.8c0,0.3,0.1,0.6,0.1,0.9c0,0.3,0,0.7,0,1.1c0,0.8,0.1,1.4,0.1,1.8
				c0.1,0.4,0.3,0.7,0.6,0.8v0.1h-3.4c-0.2-0.2-0.3-0.4-0.3-0.7c0-0.3-0.1-0.5-0.1-0.8l-0.1-2.8c0-0.6-0.2-1-0.5-1.3
				c-0.3-0.3-0.7-0.5-1.4-0.5h-1.7v6.1h-3.1V97L115.7,97L115.7,97z M114.4,103.3c0.8,0,1.3-0.2,1.7-0.5s0.6-0.9,0.6-1.7
				c0-1.3-0.7-2-2.2-2h-1.5v4.1L114.4,103.3L114.4,103.3z"/>
		</g>
		<g>
			<path class="st4" d="M58.9,120.2c-0.1,0.9-0.2,1.9-0.3,3c-0.1,1.1-0.2,2.2-0.2,3.3s-0.2,2.2-0.2,3.2c-0.1,1.1-0.1,2-0.2,2.8
				c0.7-0.1,1.5-0.3,2.3-0.5c0.9-0.2,1.7-0.4,2.6-0.6s1.8-0.4,2.6-0.6s1.6-0.3,2.3-0.4c0.1,0,0.1,0,0.2,0.1c0.2,0.1,0.2,0.3,0.2,0.5
				c0,0.3-0.1,0.6-0.1,0.8c-0.1,0.2-0.2,0.3-0.4,0.4c-0.1,0.1-0.3,0.2-0.4,0.2c-0.1,0.1-0.3,0.2-0.4,0.3c-0.6,0.2-1.3,0.4-2.1,0.6
				s-1.6,0.5-2.4,0.7s-1.6,0.5-2.4,0.7s-1.6,0.5-2.3,0.7c-0.6,0.2-1.1,0.1-1.5-0.4c-0.3-0.5-0.5-1.3-0.4-2.4
				c0.1-2.1,0.2-4.1,0.4-6.2s0.3-4.2,0.5-6.2c0-0.4,0.2-0.8,0.4-1.1c0.2-0.3,0.4-0.4,0.7-0.5c0.5-0.1,0.8,0.1,0.9,0.4
				C58.9,119.3,58.9,119.7,58.9,120.2z"/>
			<path class="st4" d="M78.3,126.1c0.1,0.3,0,0.5-0.2,0.8s-0.6,0.4-1.2,0.5c-0.9,0.1-1.9,0.3-2.9,0.5s-2,0.3-3,0.5
				c0,1.3,0,2.6,0,3.9c0.5,0,1.1-0.1,1.7-0.2c0.7-0.1,1.4-0.3,2.1-0.4c0.7-0.2,1.4-0.4,2-0.6c0.6-0.2,1.2-0.4,1.7-0.5
				c0.2-0.1,0.5-0.1,0.7-0.2c0.2,0,0.5,0,0.7,0s0.4,0.1,0.5,0.3c0.1,0.1,0.2,0.4,0.2,0.6c0,0.1-0.1,0.2-0.2,0.4
				c-0.1,0.1-0.3,0.3-0.5,0.5c-0.2,0.2-0.4,0.3-0.7,0.5c-0.2,0.1-0.4,0.2-0.6,0.3c-1.3,0.5-2.5,0.9-3.8,1.3
				c-1.2,0.4-2.4,0.6-3.6,0.6c-0.7,0-1.2-0.2-1.6-0.7S69,133,69,132.1c0-1.2,0-2.5,0-3.8c-0.4-0.3-0.5-0.6-0.5-1.1
				c0-0.5,0.2-0.8,0.6-1c0-0.7,0.1-1.5,0.1-2.2c0-0.8,0.1-1.5,0.1-2.2c-0.2-0.1-0.4-0.2-0.6-0.4c-0.2-0.2-0.3-0.5-0.3-0.8
				c0-0.2,0-0.4,0.1-0.6s0.2-0.3,0.5-0.4c0.4-0.1,0.8-0.2,1.4-0.4c0.5-0.1,1.1-0.2,1.7-0.3c0.6-0.1,1.1-0.2,1.6-0.3
				c0.5-0.1,1-0.1,1.4-0.1c0.4-0.1,0.9,0,1.3,0.1c0.4,0.1,0.8,0.4,1.1,0.9c0.1,0.4,0,0.6-0.2,0.8s-0.4,0.3-0.8,0.4
				c-0.3,0.1-0.7,0.1-1.1,0.2c-0.4,0.1-0.9,0.1-1.4,0.2s-0.9,0.1-1.4,0.2c-0.5,0.1-0.9,0.1-1.3,0.2c0,0.1,0,0.1,0,0.2
				c0,0.1,0,0.1,0,0.2c0,0.7-0.1,1.3-0.1,2c0,0.7,0,1.3-0.1,2c0.9-0.2,1.8-0.3,2.7-0.5s1.6-0.2,2.2-0.3c0.4-0.1,0.9,0,1.3,0.2
				C77.6,125.3,78,125.6,78.3,126.1z"/>
			<path class="st4" d="M83,135.6c-0.1,0.4-0.2,0.8-0.4,1.2c-0.2,0.4-0.3,0.5-0.5,0.6c-0.4,0.1-0.7,0.1-0.9-0.2
				c-0.2-0.3-0.3-0.6-0.2-1.1c0.2-1.5,0.4-3.1,0.8-4.9c0.4-1.7,0.8-3.4,1.3-5.1c0.5-1.7,1-3.4,1.6-4.9c0.6-1.6,1.2-3.1,1.8-4.4
				c0.1-0.2,0.2-0.3,0.4-0.4c0.1,0,0.2,0,0.4,0c0.1-0.1,0.2-0.2,0.4-0.3s0.3-0.1,0.4-0.1c0.1,0,0.1,0,0.2,0c0.1,0,0.1,0.1,0.2,0.2
				s0.2,0.3,0.3,0.6c0.1,0.2,0.2,0.6,0.4,1.1c0.3,1.3,0.6,2.6,1,4c0.4,1.4,0.8,2.8,1.2,4.1c0.1,0,0.1,0,0.2-0.1c0.1,0,0.1,0,0.2-0.1
				c0.2,0,0.5,0,0.8,0c0.3,0.1,0.5,0.2,0.6,0.5c0.1,0.4,0.1,0.7-0.1,1c-0.2,0.3-0.5,0.6-0.9,0.8c0.3,0.8,0.5,1.6,0.8,2.4
				s0.6,1.5,0.8,2.3c0,0.1,0.1,0.3,0.1,0.6c0,0.3,0.1,0.5,0.1,0.8s0,0.5-0.1,0.8c0,0.2-0.1,0.4-0.2,0.5c-0.1,0.1-0.3,0.1-0.4,0
				c-0.1-0.1-0.3-0.2-0.4-0.4c-0.1-0.2-0.3-0.4-0.4-0.5c-0.1-0.2-0.2-0.4-0.3-0.5c-0.4-0.8-0.7-1.7-1-2.6c-0.3-0.9-0.6-1.7-0.9-2.6
				c-0.9,0.2-1.8,0.4-2.8,0.5c-1,0.1-2,0.3-3,0.3c-0.2,1-0.4,1.9-0.7,2.9C83.4,133.7,83.2,134.7,83,135.6z M87.4,119.5
				c-0.9,2.6-1.8,5.3-2.5,7.9c1.4-0.1,2.9-0.3,4.4-0.6C88.6,124.4,88,122,87.4,119.5z"/>
			<path class="st4" d="M96.6,135c-0.1-0.9-0.1-2-0.1-3.2s-0.1-2.4-0.1-3.7c0-1.3,0-2.5,0-3.7c0-1.2,0-2.3,0.1-3.3
				c0-0.3,0.1-0.4,0.3-0.6c0.2-0.1,0.4-0.2,0.5-0.2c0.4,0.1,0.6,0.2,0.8,0.5c0.1,0.3,0.2,0.6,0.3,1.1c0,0.8,0,1.6-0.1,2.4
				c0,0.8,0,1.6,0,2.4c0.9-0.2,1.7-0.6,2.3-1.3c0.6-0.6,1.1-1.4,1.4-2.2c0.1-0.3,0.2-0.7,0.2-1.1c0.1-0.4,0.1-0.9,0-1.3
				c0-0.4-0.1-0.9-0.3-1.3c-0.2-0.4-0.4-0.7-0.7-0.9c-0.5-0.3-0.9-0.5-1.5-0.5c-0.5,0-1.1,0.1-1.7,0.3c-0.6,0.2-1.1,0.6-1.7,1
				c-0.6,0.5-1.1,1-1.5,1.6c0.1,0.4,0,0.7-0.1,1c-0.1,0.3-0.4,0.5-0.6,0.6c-0.2,0.1-0.4-0.1-0.6-0.3s-0.3-0.5-0.3-0.8
				c0-1,0.2-1.9,0.7-2.7s1.1-1.4,1.8-1.9s1.5-0.9,2.3-1.1c0.8-0.3,1.6-0.4,2.2-0.4c1,0,1.9,0.4,2.5,1.1s1.1,1.6,1.4,2.7
				c0.4,1.9,0.3,3.6-0.3,5.2c-0.6,1.5-1.7,2.9-3.2,4c1.1,0.8,2.1,1.6,3,2.3c0.9,0.7,1.9,1.6,2.8,2.4c0.1,0.1,0.3,0.4,0.4,0.7
				s0.1,0.7-0.1,1.3c-0.1,0.4-0.3,0.6-0.6,0.6c-0.3,0-0.6-0.1-0.9-0.3c-0.5-0.5-1-0.9-1.5-1.4c-0.6-0.5-1.2-1-1.8-1.5
				c-0.6-0.5-1.2-1-1.9-1.5c-0.6-0.5-1.2-0.9-1.8-1.3c0,1,0,2,0.1,3.1c0,1,0,2,0.1,3c0,0.4-0.1,0.6-0.2,0.8s-0.4,0.2-0.6,0.2
				c-0.1,0-0.2-0.1-0.3-0.2c-0.1-0.1-0.2-0.3-0.3-0.5s-0.2-0.4-0.2-0.6C96.6,135.2,96.6,135.1,96.6,135z"/>
			<path class="st4" d="M119.9,119.9c-0.1,2.2-0.3,4.4-0.5,6.6c-0.2,2.3-0.5,4.4-0.8,6.4c-0.1,0.5-0.2,0.8-0.3,1
				c-0.1,0.2-0.4,0.4-0.6,0.4c-0.2,0.1-0.5,0-0.9-0.3c-0.4-0.2-0.7-0.6-1-1c-0.4-0.6-0.7-1.2-1.1-1.9c-0.4-0.7-0.8-1.4-1.3-2.1
				c-0.5-0.7-0.9-1.4-1.5-2.2c-0.5-0.7-1-1.4-1.6-2c-0.1,1.7-0.1,3.4-0.1,5c0,1.6,0,3.3,0,5c0,0.2-0.2,0.3-0.5,0.3
				c-0.4,0-0.7-0.2-1-0.8s-0.4-1-0.4-1.5c-0.1-0.5-0.1-1.2-0.1-2.2c0-1,0-2,0.1-3c0-1.1,0.1-2.1,0.1-3s0.1-1.7,0.1-2.3
				c0-0.6,0.2-1.1,0.4-1.3s0.4-0.4,0.6-0.4c0.4,0.1,0.7,0.2,0.8,0.4s0.2,0.5,0.2,0.9c0.7,0.7,1.4,1.4,2.1,2.1
				c0.6,0.8,1.2,1.6,1.7,2.3s1,1.6,1.5,2.4c0.4,0.8,0.9,1.5,1.3,2.1c0.2-1.5,0.4-3.2,0.6-5.1c0.1-1.9,0.3-3.9,0.5-5.9
				c0-0.2,0.1-0.5,0.4-0.8c0.3-0.2,0.5-0.4,0.7-0.3C119.6,118.9,119.9,119.2,119.9,119.9z"/>
			<path class="st4" d="M125.5,132.3c0,0.1,0,0.2,0,0.4s0,0.4-0.1,0.6s-0.1,0.4-0.3,0.5s-0.3,0.2-0.5,0.2c-0.5-0.4-0.8-0.8-1.1-1.4
				c-0.2-0.8-0.3-1.6-0.4-2.6c-0.1-1-0.2-2-0.3-3.1c-0.1-1.1-0.1-2.2-0.2-3.3c0-1.1,0-2.2,0-3.3c0-0.2,0-0.4,0.1-0.7
				s0.1-0.6,0.2-0.8c0.1-0.3,0.2-0.5,0.3-0.7s0.3-0.3,0.5-0.3c0.3,0,0.5,0.1,0.6,0.3c0.2,0.2,0.2,0.5,0.2,1c0,1,0,2.1,0,3.3
				c0,1.2,0.1,2.3,0.2,3.5s0.2,2.3,0.3,3.4C125.2,130.4,125.4,131.4,125.5,132.3z"/>
			<path class="st4" d="M140.1,119.9c-0.1,2.2-0.3,4.4-0.5,6.6c-0.2,2.3-0.5,4.4-0.8,6.4c-0.1,0.5-0.2,0.8-0.3,1
				c-0.1,0.2-0.4,0.4-0.6,0.4c-0.2,0.1-0.5,0-0.9-0.3c-0.4-0.2-0.7-0.6-1-1c-0.4-0.6-0.7-1.2-1.1-1.9c-0.4-0.7-0.8-1.4-1.3-2.1
				c-0.5-0.7-0.9-1.4-1.5-2.2c-0.5-0.7-1-1.4-1.6-2c-0.1,1.7-0.1,3.4-0.1,5c0,1.6,0,3.3,0,5c0,0.2-0.2,0.3-0.5,0.3
				c-0.4,0-0.7-0.2-1-0.8s-0.4-1-0.4-1.5c-0.1-0.5-0.1-1.2-0.1-2.2c0-1,0-2,0.1-3c0-1.1,0.1-2.1,0.1-3s0.1-1.7,0.1-2.3
				c0-0.6,0.2-1.1,0.4-1.3s0.4-0.4,0.6-0.4c0.4,0.1,0.7,0.2,0.8,0.4s0.2,0.5,0.2,0.9c0.7,0.7,1.4,1.4,2.1,2.1
				c0.6,0.8,1.2,1.6,1.7,2.3s1,1.6,1.5,2.4c0.4,0.8,0.9,1.5,1.3,2.1c0.2-1.5,0.4-3.2,0.6-5.1c0.1-1.9,0.3-3.9,0.5-5.9
				c0-0.2,0.1-0.5,0.4-0.8c0.3-0.2,0.5-0.4,0.7-0.3C139.8,118.9,140.1,119.2,140.1,119.9z"/>
			<path class="st4" d="M147.4,125.5c-0.1,0-0.2,0-0.4-0.1s-0.3-0.1-0.4-0.2c-0.1-0.1-0.2-0.2-0.4-0.4c-0.1-0.1-0.1-0.3-0.1-0.4
				c0-0.2,0.1-0.4,0.3-0.8c0.2-0.3,0.5-0.5,1-0.7c0.6-0.2,1.3-0.3,1.9-0.3c0.7,0,1.4,0,2.1,0c0.7,0,1.4,0.1,2,0.1
				c0.7,0.1,1.3,0.1,1.9,0.1c0.3,0,0.6,0.1,0.6,0.2c0.1,0.1,0.2,0.3,0.2,0.5c0,0.5-0.2,0.8-0.5,1.1c-0.3,0.3-0.7,0.4-1,0.4
				c-0.4,0-0.7,0-1.1,0s-0.8,0-1.2,0c0,0.7,0,1.5,0.1,2.4c0.1,0.9,0.1,1.8,0.2,2.7c0.1,0.9,0.1,1.8,0.2,2.6c0.1,0.8,0.1,1.5,0.2,2.1
				c0,0.2,0,0.4-0.1,0.6s-0.3,0.2-0.5,0.2c-0.4,0-0.8-0.3-1-1c-0.4-1.2-0.7-2.7-0.8-4.3c-1.1,0.8-2.2,1.4-3.3,1.6
				c-1.1,0.2-2,0.2-2.9-0.1c-0.9-0.3-1.6-0.8-2.1-1.5c-0.5-0.7-0.8-1.6-0.8-2.7c0-1,0.1-2.1,0.4-3.2s0.7-2.3,1.2-3.3
				c0.5-1.1,1.2-2.1,1.9-2.9c0.7-0.9,1.6-1.6,2.5-2c0.3-0.1,0.6-0.1,0.9-0.1c0.3,0.1,0.5,0.2,0.8,0.4s0.5,0.4,0.6,0.7
				c0.2,0.3,0.4,0.5,0.5,0.8c0.1,0.2,0.2,0.4,0.2,0.6c0,0.2,0,0.4-0.2,0.6c-0.3,0.3-0.6,0.3-0.8-0.1c-0.4-0.5-0.6-0.9-0.9-1
				c-0.2-0.1-0.6,0-1,0.3c-0.4,0.4-0.9,0.9-1.4,1.6c-0.5,0.7-1,1.5-1.4,2.4c-0.4,0.9-0.8,1.8-1,2.7c-0.2,0.9-0.3,1.8-0.2,2.6
				c0.1,0.7,0.4,1.2,0.9,1.5c0.6,0.3,1.2,0.4,1.9,0.4c0.7,0,1.4-0.2,2.1-0.5s1.3-0.7,1.7-1.2c0-0.4,0-0.9-0.1-1.3c0-0.4,0-0.9,0-1.3
				c-0.5,0.1-0.9,0.1-1.4,0.1C148.4,125.3,147.9,125.4,147.4,125.5z"/>
		</g>
	</g>
	<g>
		<g>
			<polygon class="st5" points="78.5,42.1 78.5,45 81.6,45 84.9,41.7 84.9,41 81.4,44.4 81.4,42.1 			"/>
			<path class="st5" d="M94.5,29.6c0,0-0.1-0.2-0.2-0.2s-2.1,0.5-2.1,0.5l0.1-0.8l-2.6-2.1c0,0,0.9,0.1,1-0.3c0-0.4-0.5-1.5-0.5-1.5
				s1.2,0.4,1.7,0.4v-1l1.4,1.7c0,0,0.2,0.1,0.4,0c0.2-0.1-0.7-3.2-0.7-3.2s0.8,0.6,0.9,0.6c0.4,0,0.9-1.6,0.9-1.6
				c0,0.4,0.6,1.5,0.9,1.5c0.2,0,0.9-0.6,0.9-0.6s-0.9,3.1-0.7,3.2s0.4,0,0.4,0l1.4-1.7v1c0.5,0,1.7-0.4,1.7-0.4s-0.6,1-0.5,1.5
				c0,0.4,1,0.3,1,0.3L97.2,29l0.1,0.8c0,0-1.9-0.5-2.1-0.5S95,29.6,95,29.6V31h-0.5L94.5,29.6z"/>
			<path class="st5" d="M84.8,46.9L82.1,49h-3.7v3.3h-4.3v-3.2h-3.1v2.2l-4.3-4.2l4.4-4.4v2.1h3v-2.8h-3.3l-4,3.9v-4.6l3.6-3.6h3.8
				v-3.2h4.2v3.3h2.9v-2l3.2,3l1.5-4.7c0,0-3.3-2.5-10.4-2.7c-8-0.2-13.6,4.9-13.6,12.5s6.2,11.8,13.3,11.8c6.3,0,10.2-2.3,10.8-2.7
				L84.8,46.9z"/>
			<path class="st5" d="M123.3,46.4l-0.6,0.3c0,0-0.3,7.2-7.3,7.2c-6.9,0-6.9-9.3-6.9-10.4s0.4-9.8,6.8-9.8s6.7,7.6,6.7,7.7l0.5,0.2
				l2-6.8c0,0-4.5-2.6-9.7-2.6s-12.4,2.9-12.4,11.9c0,8.4,7.8,10.7,12.2,10.7c4.1,0,8.8-1.5,10.2-2.6L123.3,46.4z"/>
			<path class="st5" d="M98.1,52.3c-0.2-0.4-0.4-2.6-0.4-2.6s0-13.2,0-14.1c0-0.9,0.5-1.5,0.5-1.5c0.3-0.4,1-0.5,1-0.5v-0.7h-8.6
				v0.7c0.3,0,0.6,0.2,1.1,0.8c0.5,0.6,0.4,1.3,0.4,1.3s0,11.8,0,13.2c0,1.4-0.1,2.5-0.7,3.6c-0.6,1.1-1.8,1-1.8,1v0.7h10.3v-0.7
				C98.8,53.5,98.3,52.7,98.1,52.3z"/>
			<path class="st5" d="M143.4,41.9c-1.1-0.3-3.6-0.9-6.2-1.6s-2.9-1.8-2.9-3s1.1-3.9,4.4-3.9c5,0,6.1,6.2,6.1,6.2l0.6,0.2l1.6-6
				c-0.8-0.3-5-1.4-8.1-1.4c-7.7,0-10.1,3.6-10.1,6.8s3.5,5.9,7,6.3c4.6,0.4,6.7,2.3,6.7,4.5c0,3.3-3.6,4.1-5.5,4c-5.9-0.4-7-7-7-7
				l-0.6-0.2l-1.5,6.3c1.1,0.8,4.8,1.9,9.1,1.9c8.1,0,11-4,11-7.9S144.5,42.1,143.4,41.9z"/>
		</g>
	</g>
</g>
</svg>
